# xmcd CD database file
#
# Track frame offsets:
#	182
#	17920
#	35730
#	59342
#	71987
#	101437
#	122180
#	143912
#	166440
#	191005
#	212030
#
# Disc length: 3172 seconds
#
# Revision: 36
# Processed by: cddbd v1.5.2PL0 Copyright (c) Steve Scherf et al.
# Submitted via: CDex 1.70
#
DISCID=aa0c620b
DTITLE=PANTERA - VULGAR DISPLAY OF POWER
DYEAR=1992
DGENRE=Heavy Metal
TTITLE0=Mouth For War
TTITLE1=A New Level
TTITLE2=Walk
TTITLE3=Fucking Hostile
TTITLE4=This Love
TTITLE5=Rise
TTITLE6=No Good (Attack The Radical)
TTITLE7=Live In A Hole
TTITLE8=Regular People (Conceit)
TTITLE9=By Demons Be Driven
TTITLE10=Hollow
EXTD=YEAR: 1992
EXTT0=
EXTT1=
EXTT2=
EXTT3=
EXTT4=
EXTT5=
EXTT6=
EXTT7=
EXTT8=
EXTT9=
EXTT10=
PLAYORDER=
